PathFileType	4	(X/Y/Z)	SUBJ36_0_static_RCNL2025.trc
DataRate	CameraRate	NumFrames	NumMarkers	Units	OrigDataRate	OrigDataStartFrame	OrigNumFrames
100	100	12	25	mm	100	72	143
Frame#	Time	R_Shoulder			L_Shoulder			C7			J_Notch			R_Elbow			L_Elbow			R_Wrist			L_Wrist			R_Asis			L_Asis			Sacral			Thoracic			Sternum			R_Thigh_Lateral			R_Knee_Lateral			R_Shank_Lateral			R_Ankle_Lateral			R_Heel			R_Toe			L_Thigh_Lateral			L_Knee_Lateral			L_Shank_Lateral			L_Ankle_Lateral			L_Heel			L_Toe		
		X1	Y1	Z1	X2	Y2	Z2	X3	Y3	Z3	X4	Y4	Z4	X5	Y5	Z5	X6	Y6	Z6	X7	Y7	Z7	X8	Y8	Z8	X9	Y9	Z9	X10	Y10	Z10	X11	Y11	Z11	X12	Y12	Z12	X13	Y13	Z13	X14	Y14	Z14	X15	Y15	Z15	X16	Y16	Z16	X17	Y17	Z17	X18	Y18	Z18	X19	Y19	Z19	X20	Y20	Z20	X21	Y21	Z21	X22	Y22	Z22	X23	Y23	Z23	X24	Y24	Z24	X25	Y25	Z25
72	0.71000000	-318.368530	1362.882690	-73.050270	-337.741821	1346.012817	-417.118530	-398.244385	1415.848755	-227.961899	-256.331512	1319.122559	-239.313019	-336.535919	1055.666382	44.650799	-349.545898	1041.260742	-504.751617	-258.876205	831.009644	56.841943	-234.618500	837.293854	-509.679016	-229.323593	925.971680	-115.279579	-218.697205	922.044617	-344.739471	-443.238464	907.441650	-234.405014	-454.591095	1148.743286	-233.475998	-209.110580	1142.831787	-236.060211	-351.829376	512.901794	-63.855427	-357.283661	452.149628	-112.808167	-398.288696	244.288589	-71.407303	-351.382904	99.722275	-119.613937	-456.058990	49.024864	-185.418396	-289.051086	49.811214	-166.409729	-333.818237	528.220703	-426.684174	-348.179443	454.339569	-353.971893	-386.269226	242.363022	-389.280518	-400.152283	75.675705	-311.954285	-442.450195	46.180908	-261.479980	-271.981262	48.503658	-281.088654
73	0.72000000	-318.550293	1362.908813	-73.048248	-337.827454	1346.060913	-417.203766	-398.320160	1415.861328	-228.028198	-256.388428	1319.184448	-239.250275	-336.612610	1055.670776	44.579918	-349.516754	1041.282349	-504.781525	-258.995667	830.995544	56.806672	-234.692024	837.377991	-509.767578	-229.414185	926.037354	-115.409180	-218.800018	922.138672	-344.819275	-443.310699	907.455383	-234.475174	-454.680145	1148.753174	-233.519424	-209.230530	1142.894897	-236.118042	-352.002167	513.011475	-63.834133	-357.428802	452.153992	-112.816925	-398.328857	244.402679	-71.238838	-351.414703	99.746765	-119.592178	-456.058990	49.024864	-185.418396	-289.051605	49.815933	-166.400101	-333.902710	528.192139	-426.634674	-348.202057	454.375854	-353.887756	-386.348541	242.333984	-389.260437	-400.293854	75.907928	-311.977844	-442.746185	46.341602	-261.514404	-271.974823	48.527401	-281.083862
74	0.73000000	-318.661652	1362.881714	-73.020096	-337.913391	1346.076660	-417.140076	-398.420410	1415.875977	-227.967880	-256.517792	1319.187256	-239.274597	-336.776367	1055.713867	44.565857	-349.622009	1041.315552	-504.883392	-259.111435	830.948944	56.804285	-234.797943	837.397888	-509.824356	-229.453613	926.071655	-115.398964	-218.824402	922.135132	-344.797791	-443.462463	907.414124	-234.479752	-454.752686	1148.763428	-233.477005	-209.212936	1142.929321	-236.194229	-351.998779	513.048950	-63.872383	-357.525391	452.196930	-112.744385	-398.381042	244.350647	-71.213676	-351.421295	99.756584	-119.592384	-456.058990	49.024864	-185.418396	-289.046997	49.802311	-166.405075	-333.867126	528.173279	-426.696106	-348.207886	454.362518	-353.903534	-386.352600	242.355774	-389.311340	-400.363129	75.879372	-311.904083	-442.785370	46.366985	-261.508301	-271.964020	48.578766	-281.039429
75	0.74000000	-318.747406	1362.883545	-73.037857	-337.926544	1346.068726	-417.216217	-398.531525	1415.879761	-228.003571	-256.524506	1319.186157	-239.350693	-336.824707	1055.698120	44.474453	-349.718597	1041.381348	-504.939850	-259.237091	830.983246	56.762982	-234.886238	837.416748	-509.915482	-229.506638	926.109253	-115.403091	-218.912949	922.143738	-344.865906	-443.537231	907.426208	-234.546524	-454.863770	1148.772339	-233.637115	-209.303299	1142.933838	-236.226517	-351.990814	512.993286	-63.866798	-357.428497	452.210480	-112.853195	-398.501770	244.387039	-71.357269	-351.417572	99.754234	-119.595413	-456.058990	49.024864	-185.418396	-289.046204	49.816853	-166.430786	-333.960297	528.197754	-426.676392	-348.190826	454.339478	-353.988739	-386.425934	242.385803	-389.323090	-400.345612	75.875877	-311.916260	-442.726044	46.367966	-261.526581	-271.968994	48.583073	-281.063171
76	0.75000000	-318.832855	1362.885864	-73.121521	-338.078827	1346.108765	-417.189270	-398.601074	1415.889282	-228.077652	-256.623657	1319.188843	-239.352158	-336.989807	1055.669678	44.475780	-349.806580	1041.438232	-504.992615	-259.430237	830.971832	56.690188	-235.018852	837.416107	-509.974640	-229.618958	926.146484	-115.463013	-218.948563	922.124878	-344.836792	-443.584839	907.428162	-234.645798	-455.018402	1148.813599	-233.647079	-209.458542	1142.917603	-236.247375	-352.096222	512.995972	-63.915009	-357.478149	452.199463	-112.940590	-398.453278	244.389862	-71.317841	-351.235535	99.609558	-119.766449	-456.061401	49.040939	-185.413742	-289.004395	49.817600	-166.398911	-333.901215	528.208618	-426.803894	-348.306885	454.372498	-354.071198	-386.421417	242.377686	-389.360321	-400.280609	75.938507	-311.972992	-442.777771	46.381813	-261.484039	-271.968475	48.520992	-281.060760
77	0.76000000	-318.942230	1362.904053	-73.162254	-338.112701	1346.110596	-417.205841	-398.711243	1415.862305	-228.134583	-256.644501	1319.200684	-239.369476	-337.064087	1055.646484	44.396923	-349.929474	1041.400879	-505.109222	-259.482849	831.022461	56.620686	-235.125229	837.431610	-510.055191	-229.734665	926.166199	-115.443466	-219.035004	922.165100	-344.921021	-443.615234	907.388733	-234.757812	-455.099213	1148.789673	-233.727737	-209.437195	1143.038330	-236.273102	-352.135132	512.942444	-64.036346	-357.482391	452.196472	-112.952515	-398.435883	244.327087	-71.298630	-351.230621	99.597626	-119.755699	-456.060150	49.026665	-185.417694	-289.038879	49.801521	-166.390823	-333.961273	528.235413	-426.723602	-348.288300	454.388916	-354.108765	-386.439850	242.335083	-389.316345	-400.120026	75.645714	-311.987030	-442.494263	46.185673	-261.442352	-271.893860	48.539013	-281.112579
78	0.77000000	-319.027130	1362.800903	-73.208572	-338.142822	1346.116577	-417.310913	-398.776398	1415.900391	-228.195068	-256.726532	1319.273071	-239.413818	-337.066559	1055.667114	44.397800	-350.042328	1041.398315	-505.101044	-259.503036	831.019043	56.518932	-235.218857	837.429138	-510.129593	-229.812805	926.206787	-115.502953	-219.028290	922.196350	-344.954498	-443.773041	907.399963	-234.737900	-455.242737	1148.728882	-233.738174	-209.510956	1143.098511	-236.292770	-352.150421	512.969055	-64.011215	-357.556915	452.185730	-113.009682	-398.508453	244.495560	-71.258125	-351.374878	99.721642	-119.626602	-456.058655	49.024208	-185.418625	-289.042603	49.808151	-166.414124	-333.951050	528.234558	-426.843475	-348.373810	454.305328	-354.039093	-386.460083	242.346420	-389.306946	-400.329865	75.860825	-311.932007	-442.787476	46.303581	-261.466736	-271.970978	48.506763	-281.028961
79	0.78000000	-319.104218	1362.773560	-73.382988	-338.248932	1346.121460	-417.308838	-398.918945	1415.853516	-228.210464	-256.835632	1319.271484	-239.542557	-337.169891	1055.681763	44.343327	-350.139893	1041.367798	-505.155548	-259.590851	830.999908	56.395810	-235.357849	837.434998	-510.222092	-229.931992	926.250000	-115.632034	-219.124664	922.228516	-345.017609	-443.866821	907.367310	-234.931442	-455.315247	1148.737549	-233.803467	-209.505127	1143.147095	-236.329758	-352.313416	513.035706	-64.033768	-357.643921	452.243073	-112.951973	-398.570862	244.371964	-71.369667	-351.438080	99.769829	-119.579323	-456.058777	49.024654	-185.418488	-288.981995	49.790928	-166.431000	-333.985138	528.195068	-426.889008	-348.305603	454.291656	-354.115082	-386.500519	242.296021	-389.387268	-400.349945	75.841507	-311.937805	-442.784973	46.363926	-261.504700	-271.978668	48.494171	-281.089447
80	0.79000000	-319.188904	1362.898804	-73.354424	-338.304291	1346.163208	-417.383118	-398.926208	1415.853638	-228.282135	-256.979980	1319.272827	-239.552505	-337.280090	1055.696899	44.293766	-350.233582	1041.419189	-505.160187	-259.728409	831.010834	56.325738	-235.448959	837.452148	-510.302002	-230.013306	926.247437	-115.548943	-219.218109	922.207947	-344.948029	-443.887695	907.335693	-234.941315	-455.337494	1148.828247	-233.911148	-209.621368	1143.140747	-236.362976	-352.326843	513.062317	-64.035072	-357.652313	452.190521	-113.090302	-398.624115	244.343414	-71.458443	-351.432556	99.765083	-119.584290	-456.058990	49.024872	-185.418381	-289.032471	49.798130	-166.417862	-333.996674	528.142761	-426.929504	-348.354675	454.319153	-354.226593	-386.410583	242.318680	-389.441467	-400.361145	75.835159	-311.981628	-442.730194	46.364841	-261.538788	-271.985748	48.502956	-281.091675
81	0.80000000	-319.355835	1362.827759	-73.352226	-338.346893	1346.124390	-417.453094	-398.968811	1415.855103	-228.383575	-256.999786	1319.268677	-239.542603	-337.381836	1055.672241	44.237839	-350.293182	1041.493896	-505.264069	-259.844238	831.015289	56.238347	-235.597198	837.458130	-510.299591	-230.081253	926.301758	-115.546013	-219.345764	922.222290	-344.936005	-444.088959	907.382935	-235.031647	-455.502533	1148.765015	-233.894409	-209.831940	1143.073242	-236.448242	-352.415527	513.034302	-64.096901	-357.705292	452.342041	-113.010689	-398.715698	244.416199	-71.550278	-351.417328	99.753822	-119.595444	-456.058990	49.024879	-185.418381	-289.050537	49.819088	-166.420593	-334.032959	528.145996	-426.970032	-348.453796	454.288269	-354.179108	-386.507385	242.550812	-389.602509	-400.413574	75.866798	-311.963898	-442.719330	46.350143	-261.549500	-271.978363	48.563484	-281.004974
82	0.81000000	-319.476288	1362.855469	-73.417259	-338.441193	1346.165771	-417.455902	-399.036346	1415.864258	-228.458313	-257.088409	1319.320190	-239.602448	-337.411041	1055.646973	44.136471	-350.384888	1041.478882	-505.317444	-259.985809	831.013123	56.159036	-235.699272	837.410583	-510.284332	-230.218979	926.263916	-115.617966	-219.492325	922.199463	-344.965576	-444.104401	907.378540	-235.036133	-455.564697	1148.836182	-233.980698	-209.937775	1143.043457	-236.513474	-352.522095	513.063660	-64.140686	-357.738464	452.302551	-113.015709	-398.702515	244.473923	-71.564644	-351.412384	99.750244	-119.598976	-456.058990	49.024864	-185.418396	-289.052643	49.822834	-166.410660	-334.071442	528.157471	-426.929901	-348.387512	454.294830	-354.271210	-386.466614	242.348709	-389.454041	-400.362427	75.832069	-312.013885	-442.731110	46.348415	-261.559937	-271.973572	48.531448	-281.015747
83	0.82000000	-319.610291	1362.874634	-73.544243	-338.445923	1346.217285	-417.487976	-399.162262	1415.874512	-228.477432	-257.078888	1319.360718	-239.672562	-337.599670	1055.617920	44.151077	-350.375458	1041.501953	-505.409454	-260.080856	830.994568	56.136699	-235.789673	837.371918	-510.287766	-230.301498	926.321411	-115.601585	-219.515350	922.150085	-345.033264	-444.135498	907.403442	-235.114639	-455.779602	1148.776245	-234.076630	-209.874481	1143.183716	-236.521622	-352.550842	513.082458	-64.151596	-357.789307	452.269836	-113.117622	-398.651459	244.396378	-71.562042	-351.448486	99.796791	-119.588364	-456.058990	49.024860	-185.418396	-289.051849	49.812553	-166.399887	-333.979065	528.135071	-427.021210	-348.432953	454.234283	-354.227570	-386.518188	242.235321	-389.462067	-400.337830	75.840759	-312.035492	-442.752319	46.349579	-261.600281	-271.976379	48.501244	-281.056519
